# xmcd
#
# Track frame offsets: 
#        150
#        21744
#        37630
#        56910
#        78657
#        102060
#        123155
#        140180
#        161477
#        178415
#        196135
#        214837
#        230545
#        247120
#
# Disc length: 3483 seconds
#
# Revision: 6
# Processed by: cddbd v1.5.2PL0 Copyright (c) Steve Scherf et al.
# Submitted via: ExactAudioCopyFreeDBPlugin 1.0
#
DISCID=cb0d990e
DTITLE=Simone - Pedaço De Mim
DYEAR=1995
DGENRE=MPB
TTITLE0=O Que Será (A Flor Da Pele)
TTITLE1=Gota D'água
TTITLE2=Tô Que Tô
TTITLE3=O Amanhã
TTITLE4=Será
TTITLE5=Alma
TTITLE6=Pedaço De Mim
TTITLE7=Iolanda
TTITLE8=Outra Vez
TTITLE9=Pra Não Dizer Que Não Falei Das Flores
TTITLE10=Um Desejo Só Não Basta
TTITLE11=Seu Corpo
TTITLE12=Em Flor (Too Young)
TTITLE13=Quem É Você
EXTD=
EXTT0=
EXTT1=
EXTT2=
EXTT3=
EXTT4=
EXTT5=
EXTT6=
EXTT7=
EXTT8=
EXTT9=
EXTT10=
EXTT11=
EXTT12=
EXTT13=
PLAYORDER=
